<?xml version="1.0" encoding="UTF-8" standalone="no"?>
<svg
   xmlns:dc="http://purl.org/dc/elements/1.1/"
   xmlns:cc="http://creativecommons.org/ns#"
   xmlns:rdf="http://www.w3.org/1999/02/22-rdf-syntax-ns#"
   xmlns:svg="http://www.w3.org/2000/svg"
   xmlns="http://www.w3.org/2000/svg"
   xmlns:sodipodi="http://sodipodi.sourceforge.net/DTD/sodipodi-0.dtd"
   xmlns:inkscape="http://www.inkscape.org/namespaces/inkscape"
   inkscape:export-ydpi="96"
   inkscape:export-xdpi="96"
   inkscape:export-filename="/home/devinj/local_programming/refex_logos/logo2.png"
   id="SVGRoot"
   version="1.1"
   viewBox="0 0 256.0 256.0"
   height="256.0px"
   width="256.0px"
   inkscape:version="1.0rc1 (09960d6f05, 2020-04-09)"
   sodipodi:docname="logo2.svg">
  <defs
     id="defs18" />
  <sodipodi:namedview
     inkscape:pagecheckerboard="true"
     id="base"
     pagecolor="#ffffff"
     bordercolor="#666666"
     borderopacity="1.0"
     inkscape:pageopacity="0.0"
     inkscape:pageshadow="2"
     inkscape:zoom="1.979899"
     inkscape:cx="36.125918"
     inkscape:cy="247.7176"
     inkscape:document-units="px"
     inkscape:current-layer="g82"
     inkscape:document-rotation="0"
     showgrid="true"
     inkscape:window-width="2560"
     inkscape:window-height="1376"
     inkscape:window-x="0"
     inkscape:window-y="0"
     inkscape:window-maximized="1">
    <inkscape:grid
       id="grid27"
       type="xygrid" />
  </sodipodi:namedview>
  <metadata
     id="metadata21">
    <rdf:RDF>
      <cc:Work
         rdf:about="">
        <dc:format>image/svg+xml</dc:format>
        <dc:type
           rdf:resource="http://purl.org/dc/dcmitype/StillImage" />
        <dc:title></dc:title>
        <dc:creator>
          <cc:Agent>
            <dc:title>Devin Jeanpier</dc:title>
          </cc:Agent>
        </dc:creator>
      </cc:Work>
    </rdf:RDF>
  </metadata>
  <g
     inkscape:label="Layer 1"
     inkscape:groupmode="layer"
     id="layer1">
    <g
       id="g82"
       transform="translate(-6.2020794)">
      <g
         aria-label="℞"
         id="text1043"
         style="font-size:200px;line-height:1.25;font-family:'Noto Serif';-inkscape-font-specification:'Noto Serif';fill-opacity:1;fill:#ffffff"
         transform="matrix(1.21,0,0,1.21,1.8983293,1.6802944)">
        <path
           d="m 25.881805,152.1929 v -8.4 h 2.6 c 4.4,0 8.2,-0.73333 11.4,-2.2 3.333333,-1.6 5,-5.33333 5,-11.2 V 31.392902 c 0,-5.866667 -1.666667,-9.6 -5,-11.2 -3.2,-1.6 -7,-2.4 -11.4,-2.4 h -2.6 V 9.3929016 h 53.8 c 34.266665,0 51.400005,12.8666664 51.400005,38.6000004 0,7.066667 -1.46667,13.066667 -4.4,18 -2.93333,4.8 -6.66667,8.666667 -11.2,11.6 -4.4,2.933333 -9,5.2 -13.8,6.8 L 156.40208,159 c 4,-3.86667 6.46667,-6.4 7.4,-7.6 0.93333,-1.33333 1.4,-2.6 1.4,-3.8 0,-1.46667 -0.8,-2.53333 -2.4,-3.2 -1.46667,-0.8 -3.46667,-1.2 -6,-1.2 V 135 h 33.8 v 8.2 h -0.8 c -1.86667,0 -3.93333,0.73334 -6.2,2.2 -2.13333,1.46667 -4.8,3.6 -8,6.4 l -14.4,13.2 8,9.8 c 4.26667,5.2 8.26667,9.2 12,12 3.73333,2.8 7.33333,4.2 10.8,4.2 h 0.8 v 8.4 h -3.2 c -7.6,0 -13.66667,-0.6 -18.2,-1.8 -4.53333,-1.2 -8.4,-3.13333 -11.6,-5.8 -3.06667,-2.66667 -6.4,-6.2 -10,-10.6 l -5.8,-7.6 c -3.46667,4.13333 -5.6,6.93333 -6.4,8.4 -0.66667,1.33333 -1,2.66667 -1,4 0,1.06667 0.66667,2.2 2,3.4 1.46667,1.2 4.06667,1.8 7.8,1.8 v 8.2 h -36.80001 v -8.2 h 0.8 c 3.06667,0 5.73334,-0.73333 8,-2.2 2.4,-1.46667 4.86667,-3.66667 7.4,-6.6 L 139.00208,167.6 81.481805,89.192902 h -16.4 V 152.1929 Z m 39.2,-72.399998 h 14 c 11.733333,0 19.733335,-2.6 24.000005,-7.8 4.4,-5.2 6.6,-13 6.6,-23.4 0,-10.666667 -2.33333,-18.266667 -7,-22.8 -4.66667,-4.533333 -12.666672,-6.8 -24.000005,-6.8 h -13.6 z"
           id="path1045"
           inkscape:connector-curvature="0"
           sodipodi:nodetypes="ccscsscsccsscccccscccccsccccssccssccccscccccsccccccccscssscc"
           style="fill-opacity:1;fill:#ffffff" />
      </g>
    </g>
  </g>
</svg>
